REM DIRINDEX 1\2,1\3,1\4,1\5
REM DIRNAME cjc005,folder01,folder02,folder03,folder04
TITLE ""
FILE "P1Q_t_0600-0609.mp3" MP3
  TRACK 01 AUDIO
    TITLE "3:cjc005_2703"
    INDEX 01 00:00:00
  TRACK 02 AUDIO
    TITLE "0:"
    INDEX 01 00:00:68
  TRACK 03 AUDIO
    TITLE "4:cjc005_2704"
    INDEX 01 00:01:21
  TRACK 04 AUDIO
    TITLE "0:"
    INDEX 01 00:02:32
  TRACK 05 AUDIO
    TITLE "5:cjc005_2705"
    INDEX 01 00:02:53
  TRACK 06 AUDIO
    TITLE "0:"
    INDEX 01 00:05:34
  TRACK 07 AUDIO
    TITLE "3:cjc005_2706"
    INDEX 01 00:06:12
  TRACK 08 AUDIO
    TITLE "0:"
    INDEX 01 00:07:31
  TRACK 09 AUDIO
    TITLE "4:cjc005_2707"
    INDEX 01 00:07:58
  TRACK 10 AUDIO
    TITLE "0:"
    INDEX 01 00:09:16
  TRACK 11 AUDIO
    TITLE "5:cjc005_2708"
    INDEX 01 00:09:40
  TRACK 12 AUDIO
    TITLE "0:"
    INDEX 01 00:12:44
  TRACK 13 AUDIO
    TITLE "3:cjc005_2709"
    INDEX 01 00:13:20
  TRACK 14 AUDIO
    TITLE "0:"
    INDEX 01 00:14:35
  TRACK 15 AUDIO
    TITLE "4:cjc005_2710"
    INDEX 01 00:14:62
  TRACK 16 AUDIO
    TITLE "0:"
    INDEX 01 00:16:16
  TRACK 17 AUDIO
    TITLE "5:cjc005_2711"
    INDEX 01 00:16:40
  TRACK 18 AUDIO
    TITLE "0:"
    INDEX 01 00:20:55
  TRACK 19 AUDIO
    TITLE "3:cjc005_2712"
    INDEX 01 00:21:43
  TRACK 20 AUDIO
    TITLE "0:"
    INDEX 01 00:22:40
  TRACK 21 AUDIO
    TITLE "4:cjc005_2713"
    INDEX 01 00:22:64
  TRACK 22 AUDIO
    TITLE "0:"
    INDEX 01 00:24:16
  TRACK 23 AUDIO
    TITLE "5:cjc005_2714"
    INDEX 01 00:24:37
  TRACK 24 AUDIO
    TITLE "0:"
    INDEX 01 00:28:31
  TRACK 25 AUDIO
    TITLE "3:cjc005_2715"
    INDEX 01 00:29:11
  TRACK 26 AUDIO
    TITLE "0:"
    INDEX 01 00:30:14
  TRACK 27 AUDIO
    TITLE "4:cjc005_2716"
    INDEX 01 00:30:38
  TRACK 28 AUDIO
    TITLE "0:"
    INDEX 01 00:32:00
  TRACK 29 AUDIO
    TITLE "5:cjc005_2717"
    INDEX 01 00:32:27
  TRACK 30 AUDIO
    TITLE "0:"
    INDEX 01 00:35:17
  TRACK 31 AUDIO
    TITLE "3:cjc005_2718"
    INDEX 01 00:35:70
  TRACK 32 AUDIO
    TITLE "0:"
    INDEX 01 00:37:20
  TRACK 33 AUDIO
    TITLE "4:cjc005_2719"
    INDEX 01 00:37:42
  TRACK 34 AUDIO
    TITLE "0:"
    INDEX 01 00:39:23
  TRACK 35 AUDIO
    TITLE "5:cjc005_2720"
    INDEX 01 00:39:47
  TRACK 36 AUDIO
    TITLE "0:"
    INDEX 01 00:43:07
  TRACK 37 AUDIO
    TITLE "3:cjc005_2721"
    INDEX 01 00:43:60
  TRACK 38 AUDIO
    TITLE "0:"
    INDEX 01 00:44:71
  TRACK 39 AUDIO
    TITLE "4:cjc005_2722"
    INDEX 01 00:45:22
  TRACK 40 AUDIO
    TITLE "0:"
    INDEX 01 00:46:37
  TRACK 41 AUDIO
    TITLE "5:cjc005_2723"
    INDEX 01 00:46:58
  TRACK 42 AUDIO
    TITLE "0:"
    INDEX 01 00:49:70
  TRACK 43 AUDIO
    TITLE "3:cjc005_2724"
    INDEX 01 00:50:50
  TRACK 44 AUDIO
    TITLE "0:"
    INDEX 01 00:51:58
  TRACK 45 AUDIO
    TITLE "4:cjc005_2725"
    INDEX 01 00:52:02
  TRACK 46 AUDIO
    TITLE "0:"
    INDEX 01 00:53:31
  TRACK 47 AUDIO
    TITLE "5:cjc005_2726"
    INDEX 01 00:53:53
  TRACK 48 AUDIO
    TITLE "0:"
    INDEX 01 00:57:37
  TRACK 49 AUDIO
    TITLE "3:cjc005_2727"
    INDEX 01 00:58:17
  TRACK 50 AUDIO
    TITLE "0:"
    INDEX 01 00:59:32
  TRACK 51 AUDIO
    TITLE "4:cjc005_2728"
    INDEX 01 00:59:55
  TRACK 52 AUDIO
    TITLE "0:"
    INDEX 01 01:01:13
  TRACK 53 AUDIO
    TITLE "5:cjc005_2729"
    INDEX 01 01:01:36
  TRACK 54 AUDIO
    TITLE "0:"
    INDEX 01 01:04:52
  TRACK 55 AUDIO
    TITLE "3:cjc005_2730"
    INDEX 01 01:05:28
  TRACK 56 AUDIO
    TITLE "0:"
    INDEX 01 01:06:42
  TRACK 57 AUDIO
    TITLE "4:cjc005_2731"
    INDEX 01 01:06:65
  TRACK 58 AUDIO
    TITLE "0:"
    INDEX 01 01:08:13
  TRACK 59 AUDIO
    TITLE "5:cjc005_2732"
    INDEX 01 01:08:38
  TRACK 60 AUDIO
    TITLE "0:"
    INDEX 01 01:12:46
